<mxfile host="65bd71144e">
    <diagram id="DdjYnMtazVmu2UC3mEiZ" name="Page-1">
        <mxGraphModel dx="1140" dy="811" grid="0" gridSize="10" guides="1" tooltips="1" connect="1" arrows="1" fold="1" page="1" pageScale="1" pageWidth="827" pageHeight="1169" background="#ffffff" math="0" shadow="0">
            <root>
                <mxCell id="0"/>
                <mxCell id="1" parent="0"/>
                <mxCell id="86" value="" style="group" parent="1" vertex="1" connectable="0">
                    <mxGeometry x="12" y="53.5" width="801" height="1061.5" as="geometry"/>
                </mxCell>
                <mxCell id="2" value="Figure" style="swimlane;fontStyle=1;align=center;verticalAlign=top;childLayout=stackLayout;horizontal=1;startSize=26;horizontalStack=0;resizeParent=1;resizeParentMax=0;resizeLast=0;collapsible=1;marginBottom=0;strokeColor=#666666;labelBackgroundColor=#FFFFFF;fontColor=#333333;fillColor=#f5f5f5;rounded=0;" parent="86" vertex="1">
                    <mxGeometry x="7" y="313.5" width="179" height="123" as="geometry"/>
                </mxCell>
                <mxCell id="3" value="- birth: String&#10;- death: String" style="text;strokeColor=none;fillColor=none;align=left;verticalAlign=top;spacingLeft=4;spacingRight=4;overflow=hidden;rotatable=0;points=[[0,0.5],[1,0.5]];portConstraint=eastwest;fontColor=#000000;rounded=0;" parent="2" vertex="1">
                    <mxGeometry y="26" width="179" height="38" as="geometry"/>
                </mxCell>
                <mxCell id="4" value="" style="line;strokeWidth=1;fillColor=none;align=left;verticalAlign=middle;spacingTop=-1;spacingLeft=3;spacingRight=3;rotatable=0;labelPosition=right;points=[];portConstraint=eastwest;strokeColor=inherit;rounded=0;" parent="2" vertex="1">
                    <mxGeometry y="64" width="179" height="8" as="geometry"/>
                </mxCell>
                <mxCell id="5" value="+ Figure(birth, death)&#10;+ getBirth(): birth&#10;+ getDeath(): death&#10;&#10;" style="text;strokeColor=none;fillColor=none;align=left;verticalAlign=top;spacingLeft=4;spacingRight=4;overflow=hidden;rotatable=0;points=[[0,0.5],[1,0.5]];portConstraint=eastwest;fontColor=#000000;rounded=0;" parent="2" vertex="1">
                    <mxGeometry y="72" width="179" height="51" as="geometry"/>
                </mxCell>
                <mxCell id="10" value="Location" style="swimlane;fontStyle=1;align=center;verticalAlign=top;childLayout=stackLayout;horizontal=1;startSize=26;horizontalStack=0;resizeParent=1;resizeParentMax=0;resizeLast=0;collapsible=1;marginBottom=0;strokeColor=#666666;labelBackgroundColor=#FFFFFF;fontColor=#333333;fillColor=#f5f5f5;rounded=0;" parent="86" vertex="1">
                    <mxGeometry x="10" y="453.5" width="179" height="121" as="geometry"/>
                </mxCell>
                <mxCell id="11" value="- location: String&#10;- category: String" style="text;strokeColor=none;fillColor=none;align=left;verticalAlign=top;spacingLeft=4;spacingRight=4;overflow=hidden;rotatable=0;points=[[0,0.5],[1,0.5]];portConstraint=eastwest;fontColor=#000000;rounded=0;" parent="10" vertex="1">
                    <mxGeometry y="26" width="179" height="37" as="geometry"/>
                </mxCell>
                <mxCell id="12" value="" style="line;strokeWidth=1;fillColor=none;align=left;verticalAlign=middle;spacingTop=-1;spacingLeft=3;spacingRight=3;rotatable=0;labelPosition=right;points=[];portConstraint=eastwest;strokeColor=inherit;rounded=0;" parent="10" vertex="1">
                    <mxGeometry y="63" width="179" height="8" as="geometry"/>
                </mxCell>
                <mxCell id="13" value="+ Location(location, category)&#10;+ getCategory(): category&#10;+ getLocation(): category" style="text;strokeColor=none;fillColor=none;align=left;verticalAlign=top;spacingLeft=4;spacingRight=4;overflow=hidden;rotatable=0;points=[[0,0.5],[1,0.5]];portConstraint=eastwest;fontColor=#000000;rounded=0;" parent="10" vertex="1">
                    <mxGeometry y="71" width="179" height="50" as="geometry"/>
                </mxCell>
                <mxCell id="14" value="War" style="swimlane;fontStyle=1;align=center;verticalAlign=top;childLayout=stackLayout;horizontal=1;startSize=26;horizontalStack=0;resizeParent=1;resizeParentMax=0;resizeLast=0;collapsible=1;marginBottom=0;strokeColor=#666666;labelBackgroundColor=#FFFFFF;fontColor=#333333;fillColor=#f5f5f5;rounded=0;" parent="86" vertex="1">
                    <mxGeometry y="602.5" width="179" height="155" as="geometry">
                        <mxRectangle x="40" y="720" width="57" height="26" as="alternateBounds"/>
                    </mxGeometry>
                </mxCell>
                <mxCell id="15" value="- occurTime: String&#10;- place: String&#10;- result: String" style="text;strokeColor=none;fillColor=none;align=left;verticalAlign=top;spacingLeft=4;spacingRight=4;overflow=hidden;rotatable=0;points=[[0,0.5],[1,0.5]];portConstraint=eastwest;fontColor=#000000;rounded=0;" parent="14" vertex="1">
                    <mxGeometry y="26" width="179" height="52" as="geometry"/>
                </mxCell>
                <mxCell id="16" value="" style="line;strokeWidth=1;fillColor=none;align=left;verticalAlign=middle;spacingTop=-1;spacingLeft=3;spacingRight=3;rotatable=0;labelPosition=right;points=[];portConstraint=eastwest;strokeColor=inherit;rounded=0;" parent="14" vertex="1">
                    <mxGeometry y="78" width="179" height="8" as="geometry"/>
                </mxCell>
                <mxCell id="17" value="+ War(occurTime, place, result)&#10;+ getOccurTime(): occurTime&#10;+ getPlace(): place&#10;+ getResult(): result" style="text;strokeColor=none;fillColor=none;align=left;verticalAlign=top;spacingLeft=4;spacingRight=4;overflow=hidden;rotatable=0;points=[[0,0.5],[1,0.5]];portConstraint=eastwest;fontColor=#000000;rounded=0;" parent="14" vertex="1">
                    <mxGeometry y="86" width="179" height="69" as="geometry"/>
                </mxCell>
                <mxCell id="18" value="Dynasty" style="swimlane;fontStyle=1;align=center;verticalAlign=top;childLayout=stackLayout;horizontal=1;startSize=26;horizontalStack=0;resizeParent=1;resizeParentMax=0;resizeLast=0;collapsible=1;marginBottom=0;strokeColor=#666666;labelBackgroundColor=#FFFFFF;fontColor=#333333;fillColor=#f5f5f5;rounded=0;" parent="86" vertex="1">
                    <mxGeometry x="7" width="179" height="113" as="geometry"/>
                </mxCell>
                <mxCell id="19" value="- timeline: string" style="text;strokeColor=none;fillColor=none;align=left;verticalAlign=top;spacingLeft=4;spacingRight=4;overflow=hidden;rotatable=0;points=[[0,0.5],[1,0.5]];portConstraint=eastwest;fontColor=#000000;rounded=0;" parent="18" vertex="1">
                    <mxGeometry y="26" width="179" height="27" as="geometry"/>
                </mxCell>
                <mxCell id="20" value="" style="line;strokeWidth=1;fillColor=none;align=left;verticalAlign=middle;spacingTop=-1;spacingLeft=3;spacingRight=3;rotatable=0;labelPosition=right;points=[];portConstraint=eastwest;strokeColor=inherit;rounded=0;" parent="18" vertex="1">
                    <mxGeometry y="53" width="179" height="8" as="geometry"/>
                </mxCell>
                <mxCell id="21" value="+ Dynasty(timeLine)&#10;+ getTimeLine(): timeLine &#10;+ setTimeLine(timeLine): void" style="text;strokeColor=none;fillColor=none;align=left;verticalAlign=top;spacingLeft=4;spacingRight=4;overflow=hidden;rotatable=0;points=[[0,0.5],[1,0.5]];portConstraint=eastwest;fontColor=#000000;rounded=0;" parent="18" vertex="1">
                    <mxGeometry y="61" width="179" height="52" as="geometry"/>
                </mxCell>
                <mxCell id="22" value="Festival" style="swimlane;fontStyle=1;align=center;verticalAlign=top;childLayout=stackLayout;horizontal=1;startSize=26;horizontalStack=0;resizeParent=1;resizeParentMax=0;resizeLast=0;collapsible=1;marginBottom=0;strokeColor=#666666;labelBackgroundColor=#FFFFFF;fontColor=#333333;fillColor=#f5f5f5;rounded=0;" parent="86" vertex="1">
                    <mxGeometry x="7" y="162.5" width="179" height="120" as="geometry"/>
                </mxCell>
                <mxCell id="23" value="- location: String&#10;- occurTime: String" style="text;strokeColor=none;fillColor=none;align=left;verticalAlign=top;spacingLeft=4;spacingRight=4;overflow=hidden;rotatable=0;points=[[0,0.5],[1,0.5]];portConstraint=eastwest;fontColor=#000000;rounded=0;" parent="22" vertex="1">
                    <mxGeometry y="26" width="179" height="34" as="geometry"/>
                </mxCell>
                <mxCell id="24" value="" style="line;strokeWidth=1;fillColor=none;align=left;verticalAlign=middle;spacingTop=-1;spacingLeft=3;spacingRight=3;rotatable=0;labelPosition=right;points=[];portConstraint=eastwest;strokeColor=inherit;rounded=0;" parent="22" vertex="1">
                    <mxGeometry y="60" width="179" height="8" as="geometry"/>
                </mxCell>
                <mxCell id="25" value="+ Festival(location, occurTime) &#10;+ getLocation(): location&#10;+ getOccurTime(): occurTime" style="text;strokeColor=none;fillColor=none;align=left;verticalAlign=top;spacingLeft=4;spacingRight=4;overflow=hidden;rotatable=0;points=[[0,0.5],[1,0.5]];portConstraint=eastwest;fontColor=#000000;rounded=0;" parent="22" vertex="1">
                    <mxGeometry y="68" width="179" height="52" as="geometry"/>
                </mxCell>
                <mxCell id="32" value="&amp;lt;&amp;lt;interface&amp;gt;&amp;gt;&lt;br&gt;&lt;b&gt;Crawlable&lt;/b&gt;" style="swimlane;fontStyle=0;align=center;verticalAlign=top;childLayout=stackLayout;horizontal=1;startSize=40;horizontalStack=0;resizeParent=1;resizeParentMax=0;resizeLast=0;collapsible=0;marginBottom=0;html=1;fillColor=#f5f5f5;strokeColor=#666666;fontColor=#333333;" parent="86" vertex="1">
                    <mxGeometry x="622" y="196.5" width="141" height="76" as="geometry"/>
                </mxCell>
                <mxCell id="33" value="&lt;font color=&quot;#000000&quot;&gt;+ crawlData(): void&lt;br&gt;&lt;/font&gt;" style="text;html=1;strokeColor=none;fillColor=none;align=left;verticalAlign=middle;spacingLeft=4;spacingRight=4;overflow=hidden;rotatable=0;points=[[0,0.5],[1,0.5]];portConstraint=eastwest;" parent="32" vertex="1">
                    <mxGeometry y="40" width="141" height="36" as="geometry"/>
                </mxCell>
                <mxCell id="34" value="CrawlerFestival" style="swimlane;fontStyle=1;align=center;verticalAlign=top;childLayout=stackLayout;horizontal=1;startSize=26;horizontalStack=0;resizeParent=1;resizeParentMax=0;resizeLast=0;collapsible=1;marginBottom=0;fillColor=#f5f5f5;fontColor=#333333;strokeColor=#666666;" parent="86" vertex="1">
                    <mxGeometry x="242" y="161.5" width="209" height="124" as="geometry"/>
                </mxCell>
                <mxCell id="35" value="- festival: List&lt;Festival&gt;&#10;- dataList: ObservableList&lt;Historical&gt;&#10;- doc: Document" style="text;strokeColor=none;fillColor=none;align=left;verticalAlign=top;spacingLeft=4;spacingRight=4;overflow=hidden;rotatable=0;points=[[0,0.5],[1,0.5]];portConstraint=eastwest;fontColor=#000000;" parent="34" vertex="1">
                    <mxGeometry y="26" width="209" height="50" as="geometry"/>
                </mxCell>
                <mxCell id="36" value="" style="line;strokeWidth=1;fillColor=none;align=left;verticalAlign=middle;spacingTop=-1;spacingLeft=3;spacingRight=3;rotatable=0;labelPosition=right;points=[];portConstraint=eastwest;strokeColor=inherit;" parent="34" vertex="1">
                    <mxGeometry y="76" width="209" height="8" as="geometry"/>
                </mxCell>
                <mxCell id="37" value="+ CrawlerFestival(dataList)&#10;+ getFestival(): festival" style="text;strokeColor=none;fillColor=none;align=left;verticalAlign=top;spacingLeft=4;spacingRight=4;overflow=hidden;rotatable=0;points=[[0,0.5],[1,0.5]];portConstraint=eastwest;fontColor=#000000;" parent="34" vertex="1">
                    <mxGeometry y="84" width="209" height="40" as="geometry"/>
                </mxCell>
                <mxCell id="38" value="CrawlerLocation" style="swimlane;fontStyle=1;align=center;verticalAlign=top;childLayout=stackLayout;horizontal=1;startSize=26;horizontalStack=0;resizeParent=1;resizeParentMax=0;resizeLast=0;collapsible=1;marginBottom=0;fillColor=#f5f5f5;fontColor=#333333;strokeColor=#666666;" parent="86" vertex="1">
                    <mxGeometry x="249" y="494.5" width="208" height="117" as="geometry"/>
                </mxCell>
                <mxCell id="39" value="- locations: List&lt;Location&gt;&#10;- dataList: ObservableList&lt;Historical&gt;" style="text;strokeColor=none;fillColor=none;align=left;verticalAlign=top;spacingLeft=4;spacingRight=4;overflow=hidden;rotatable=0;points=[[0,0.5],[1,0.5]];portConstraint=eastwest;fontColor=#000000;" parent="38" vertex="1">
                    <mxGeometry y="26" width="208" height="35" as="geometry"/>
                </mxCell>
                <mxCell id="40" value="" style="line;strokeWidth=1;fillColor=none;align=left;verticalAlign=middle;spacingTop=-1;spacingLeft=3;spacingRight=3;rotatable=0;labelPosition=right;points=[];portConstraint=eastwest;strokeColor=inherit;" parent="38" vertex="1">
                    <mxGeometry y="61" width="208" height="7" as="geometry"/>
                </mxCell>
                <mxCell id="41" value="+ CrawlerLocation(dataList)&#10;+getLocation(): locations&#10;-getDetail(String url): void&#10;" style="text;strokeColor=none;fillColor=none;align=left;verticalAlign=top;spacingLeft=4;spacingRight=4;overflow=hidden;rotatable=0;points=[[0,0.5],[1,0.5]];portConstraint=eastwest;fontColor=#000000;" parent="38" vertex="1">
                    <mxGeometry y="68" width="208" height="49" as="geometry"/>
                </mxCell>
                <mxCell id="42" value="CrawlerDynasty" style="swimlane;fontStyle=1;align=center;verticalAlign=top;childLayout=stackLayout;horizontal=1;startSize=26;horizontalStack=0;resizeParent=1;resizeParentMax=0;resizeLast=0;collapsible=1;marginBottom=0;fillColor=#f5f5f5;fontColor=#333333;strokeColor=#666666;" parent="86" vertex="1">
                    <mxGeometry x="244" width="209" height="140" as="geometry"/>
                </mxCell>
                <mxCell id="43" value="- dynasties: List&lt;Dynasty&gt;&#10;- dataList: ObservableList&lt;Historical&gt;&#10;- doc: Document" style="text;strokeColor=none;fillColor=none;align=left;verticalAlign=top;spacingLeft=4;spacingRight=4;overflow=hidden;rotatable=0;points=[[0,0.5],[1,0.5]];portConstraint=eastwest;gradientColor=none;fontColor=#000000;" parent="42" vertex="1">
                    <mxGeometry y="26" width="209" height="54" as="geometry"/>
                </mxCell>
                <mxCell id="44" value="" style="line;strokeWidth=1;fillColor=none;align=left;verticalAlign=middle;spacingTop=-1;spacingLeft=3;spacingRight=3;rotatable=0;labelPosition=right;points=[];portConstraint=eastwest;strokeColor=inherit;" parent="42" vertex="1">
                    <mxGeometry y="80" width="209" height="8" as="geometry"/>
                </mxCell>
                <mxCell id="45" value="+ CrawlerDynasty(dataList)&#10;- detailHandle(Element): void&#10;- getRelativeLink(Element): void" style="text;strokeColor=none;fillColor=none;align=left;verticalAlign=top;spacingLeft=4;spacingRight=4;overflow=hidden;rotatable=0;points=[[0,0.5],[1,0.5]];portConstraint=eastwest;fontColor=#000000;" parent="42" vertex="1">
                    <mxGeometry y="88" width="209" height="52" as="geometry"/>
                </mxCell>
                <mxCell id="46" value="CrawlerFigure" style="swimlane;fontStyle=1;align=center;verticalAlign=top;childLayout=stackLayout;horizontal=1;startSize=26;horizontalStack=0;resizeParent=1;resizeParentMax=0;resizeLast=0;collapsible=1;marginBottom=0;fillColor=#f5f5f5;fontColor=#333333;strokeColor=#666666;" parent="86" vertex="1">
                    <mxGeometry x="242" y="304.5" width="229" height="168" as="geometry"/>
                </mxCell>
                <mxCell id="47" value="- figures: List&lt;Figure&gt;&#10;- dataList: ObservableList&lt;Historical&gt;&#10;- doc: Document" style="text;strokeColor=none;fillColor=none;align=left;verticalAlign=top;spacingLeft=4;spacingRight=4;overflow=hidden;rotatable=0;points=[[0,0.5],[1,0.5]];portConstraint=eastwest;fontColor=#000000;" parent="46" vertex="1">
                    <mxGeometry y="26" width="229" height="53" as="geometry"/>
                </mxCell>
                <mxCell id="48" value="" style="line;strokeWidth=1;fillColor=none;align=left;verticalAlign=middle;spacingTop=-1;spacingLeft=3;spacingRight=3;rotatable=0;labelPosition=right;points=[];portConstraint=eastwest;strokeColor=inherit;" parent="46" vertex="1">
                    <mxGeometry y="79" width="229" height="8" as="geometry"/>
                </mxCell>
                <mxCell id="49" value="+ CrawlerFigure(dataList)&#10;- CrawlFigure(): void&#10;- CrawlKings(): void&#10;- addToList(Figure): void&#10;- mergeData(Figure, Figure): void" style="text;strokeColor=none;fillColor=none;align=left;verticalAlign=top;spacingLeft=4;spacingRight=4;overflow=hidden;rotatable=0;points=[[0,0.5],[1,0.5]];portConstraint=eastwest;fontColor=#000000;" parent="46" vertex="1">
                    <mxGeometry y="87" width="229" height="81" as="geometry"/>
                </mxCell>
                <mxCell id="50" value="CrawlerWar" style="swimlane;fontStyle=1;align=center;verticalAlign=top;childLayout=stackLayout;horizontal=1;startSize=26;horizontalStack=0;resizeParent=1;resizeParentMax=0;resizeLast=0;collapsible=1;marginBottom=0;fillColor=#f5f5f5;fontColor=#333333;strokeColor=#666666;" parent="86" vertex="1">
                    <mxGeometry x="244" y="650.5" width="208" height="126" as="geometry"/>
                </mxCell>
                <mxCell id="51" value="- wars: List&lt;War&gt;&#10;- dataList: ObservableList&lt;Historical&gt;&#10;- doc: Document&#10;" style="text;strokeColor=none;fillColor=none;align=left;verticalAlign=top;spacingLeft=4;spacingRight=4;overflow=hidden;rotatable=0;points=[[0,0.5],[1,0.5]];portConstraint=eastwest;fontColor=#000000;" parent="50" vertex="1">
                    <mxGeometry y="26" width="208" height="52" as="geometry"/>
                </mxCell>
                <mxCell id="52" value="" style="line;strokeWidth=1;fillColor=none;align=left;verticalAlign=middle;spacingTop=-1;spacingLeft=3;spacingRight=3;rotatable=0;labelPosition=right;points=[];portConstraint=eastwest;strokeColor=inherit;" parent="50" vertex="1">
                    <mxGeometry y="78" width="208" height="8" as="geometry"/>
                </mxCell>
                <mxCell id="53" value="+ CrawlerWar(dataList)&#10;+ getWar(): wars" style="text;strokeColor=none;fillColor=none;align=left;verticalAlign=top;spacingLeft=4;spacingRight=4;overflow=hidden;rotatable=0;points=[[0,0.5],[1,0.5]];portConstraint=eastwest;fontColor=#000000;" parent="50" vertex="1">
                    <mxGeometry y="86" width="208" height="40" as="geometry"/>
                </mxCell>
                <mxCell id="55" value="" style="endArrow=block;dashed=1;endFill=0;endSize=12;html=1;exitX=1;exitY=0.074;exitDx=0;exitDy=0;exitPerimeter=0;entryX=0;entryY=0.5;entryDx=0;entryDy=0;strokeColor=#000000;" parent="86" source="37" target="32" edge="1">
                    <mxGeometry width="160" relative="1" as="geometry">
                        <mxPoint x="320" y="619.5" as="sourcePoint"/>
                        <mxPoint x="405" y="954.5" as="targetPoint"/>
                    </mxGeometry>
                </mxCell>
                <mxCell id="56" value="" style="endArrow=block;dashed=1;endFill=0;endSize=12;html=1;exitX=1.001;exitY=0.085;exitDx=0;exitDy=0;exitPerimeter=0;strokeColor=#000000;entryX=0;entryY=0.25;entryDx=0;entryDy=0;" parent="86" source="45" target="32" edge="1">
                    <mxGeometry width="160" relative="1" as="geometry">
                        <mxPoint x="405.30099999999993" y="540.02" as="sourcePoint"/>
                        <mxPoint x="637" y="272.5" as="targetPoint"/>
                    </mxGeometry>
                </mxCell>
                <mxCell id="57" value="" style="endArrow=block;dashed=1;endFill=0;endSize=12;html=1;exitX=1.001;exitY=0.035;exitDx=0;exitDy=0;exitPerimeter=0;strokeColor=#000000;entryX=-0.003;entryY=0.978;entryDx=0;entryDy=0;entryPerimeter=0;" parent="86" source="39" target="33" edge="1">
                    <mxGeometry width="160" relative="1" as="geometry">
                        <mxPoint x="286.172" y="731.6679999999999" as="sourcePoint"/>
                        <mxPoint x="337" y="780.5" as="targetPoint"/>
                    </mxGeometry>
                </mxCell>
                <mxCell id="59" value="" style="endArrow=block;dashed=1;endFill=0;endSize=12;html=1;exitX=1;exitY=0.5;exitDx=0;exitDy=0;entryX=0;entryY=0.5;entryDx=0;entryDy=0;strokeColor=#000000;" parent="86" source="47" target="33" edge="1">
                    <mxGeometry width="160" relative="1" as="geometry">
                        <mxPoint x="314.172" y="727.6679999999999" as="sourcePoint"/>
                        <mxPoint x="335" y="1021.5" as="targetPoint"/>
                    </mxGeometry>
                </mxCell>
                <mxCell id="60" value="Use" style="endArrow=open;endSize=12;dashed=1;html=1;entryX=1;entryY=0.5;entryDx=0;entryDy=0;strokeColor=#000000;labelBackgroundColor=#FFFFFF;fontColor=#000000;" parent="86" source="47" target="3" edge="1">
                    <mxGeometry width="160" relative="1" as="geometry">
                        <mxPoint x="319" y="309.5" as="sourcePoint"/>
                        <mxPoint x="479" y="309.5" as="targetPoint"/>
                    </mxGeometry>
                </mxCell>
                <mxCell id="61" value="Use" style="endArrow=open;endSize=12;dashed=1;html=1;entryX=1;entryY=-0.029;entryDx=0;entryDy=0;entryPerimeter=0;exitX=-0.011;exitY=0.626;exitDx=0;exitDy=0;exitPerimeter=0;fontColor=#000000;strokeColor=#000000;labelBackgroundColor=#FFFFFF;" parent="86" source="43" target="21" edge="1">
                    <mxGeometry width="160" relative="1" as="geometry">
                        <mxPoint x="231" y="573.5" as="sourcePoint"/>
                        <mxPoint x="30.41300000000001" y="231.65599999999995" as="targetPoint"/>
                    </mxGeometry>
                </mxCell>
                <mxCell id="62" value="Use" style="endArrow=open;endSize=12;dashed=1;html=1;entryX=1.003;entryY=0.904;entryDx=0;entryDy=0;entryPerimeter=0;strokeColor=#000000;labelBackgroundColor=#FFFFFF;fontColor=#000000;" parent="86" source="35" target="23" edge="1">
                    <mxGeometry width="160" relative="1" as="geometry">
                        <mxPoint x="388" y="490.5" as="sourcePoint"/>
                        <mxPoint x="241.2349999999999" y="355.00800000000004" as="targetPoint"/>
                    </mxGeometry>
                </mxCell>
                <mxCell id="63" value="Use" style="endArrow=open;endSize=12;dashed=1;html=1;exitX=0;exitY=0.5;exitDx=0;exitDy=0;entryX=1;entryY=0.5;entryDx=0;entryDy=0;fontColor=#000000;labelBackgroundColor=#FFFFFF;strokeColor=#000000;" parent="86" source="39" target="11" edge="1">
                    <mxGeometry width="160" relative="1" as="geometry">
                        <mxPoint x="409.0256410256411" y="412.5" as="sourcePoint"/>
                        <mxPoint x="542" y="332.5" as="targetPoint"/>
                    </mxGeometry>
                </mxCell>
                <mxCell id="64" value="Use" style="endArrow=open;endSize=12;dashed=1;html=1;entryX=1;entryY=0.5;entryDx=0;entryDy=0;exitX=0;exitY=0.5;exitDx=0;exitDy=0;strokeColor=#000000;fontColor=#000000;labelBackgroundColor=#FFFFFF;" parent="86" source="51" target="15" edge="1">
                    <mxGeometry width="160" relative="1" as="geometry">
                        <mxPoint x="554.432" y="555.78" as="sourcePoint"/>
                        <mxPoint x="552.088" y="352.53999999999996" as="targetPoint"/>
                    </mxGeometry>
                </mxCell>
                <mxCell id="67" value="" style="endArrow=block;dashed=1;endFill=0;endSize=12;html=1;entryX=0.113;entryY=0.989;entryDx=0;entryDy=0;entryPerimeter=0;exitX=1.012;exitY=0.885;exitDx=0;exitDy=0;exitPerimeter=0;strokeColor=#000000;" parent="86" source="51" target="33" edge="1">
                    <mxGeometry width="160" relative="1" as="geometry">
                        <mxPoint x="552" y="762.5" as="sourcePoint"/>
                        <mxPoint x="712" y="762.5" as="targetPoint"/>
                    </mxGeometry>
                </mxCell>
            </root>
        </mxGraphModel>
    </diagram>
</mxfile>